<?xml version="1.0" encoding="utf-8"?>
<!-- Generator: Adobe Illustrator 28.0.0, SVG Export Plug-In . SVG Version: 6.00 Build 0)  -->
<svg version="1.1" id="Logotipo_Chuen" xmlns="http://www.w3.org/2000/svg" xmlns:xlink="http://www.w3.org/1999/xlink" x="0px"
	 y="0px" viewBox="0 0 1000 449" style="enable-background:new 0 0 1000 449;" xml:space="preserve">
<style type="text/css">
	.st0{fill:#FF671D;}
	.st1{fill:#FFA400;}
</style>
<g>
	<g>
		<path class="st0" d="M310.9,428.9c-3.3,3.1-9,6-15.1,6c-10.9,0-18.9-7.1-18.9-18.9c0-12,8-19,18.9-19c9.4,0,14.9,5.3,15.1,13.9
			l-5.2,1.1c-0.2-6.1-3.5-9.8-10-9.8c-7.6,0-12.9,5-12.9,13.8c0,8.6,5.3,13.7,13.1,13.7c4.9,0,9.4-2.3,12.3-4.9L310.9,428.9z"/>
		<path class="st0" d="M319.8,397.5h16c7,0,13.9,3.1,13.9,11.8c0,6.7-5.3,11.1-11.6,11.5c3.6,3.7,7.8,9.2,12.3,9.2
			c1.4,0,3.1-0.4,4.4-1l0.6,4.6c-1.5,0.8-3.6,1.4-5.9,1.4c-8.1,0-14.2-11-18.5-14.1h-5.6v13.6h-5.6V397.5z M325.4,402.4v13.9h11
			c4.1,0,7.4-2.5,7.4-6.9c0-4.7-3.3-7-7.4-7H325.4z"/>
		<path class="st0" d="M361.5,434.3v-36.9h28.6v5h-23.2v10.4h19.3v5h-19.3v11.6h23.2v5H361.5z"/>
		<path class="st0" d="M409.8,397.5h6.5l14.6,36.9h-5.7l-3.3-8.1h-18.4l-3.4,8.1h-5.8L409.8,397.5z M405.1,421.9h15.5l-7.5-18.8
			L405.1,421.9z"/>
		<path class="st0" d="M443.5,406.5v27.9h-5.6v-36.9h4.9l23.4,28v-28h5.6v36.9H467L443.5,406.5z"/>
		<path class="st0" d="M483.4,397.5h15c10.9,0.1,19,6.5,19,18.5c0,11.9-8.1,18.4-19,18.4h-15V397.5z M489,402.4v27h9.1
			c7.9,0,13.5-4.8,13.5-13.5c0-8.8-5.6-13.5-13.5-13.6H489z"/>
		<path class="st0" d="M543.1,396.9c10.9,0,19,8.1,19,19c0,10.8-8.1,18.9-19,18.9c-10.8,0-18.9-8.1-18.9-18.9
			C524.2,405.1,532.3,396.9,543.1,396.9z M543.2,429.6c7.9,0,13.5-5.9,13.5-13.6c0-7.9-5.6-13.7-13.5-13.7
			c-7.8,0-13.4,5.8-13.4,13.7C529.8,423.7,535.4,429.6,543.2,429.6z"/>
		<path class="st0" d="M590.8,417.1c-5.4-1.4-8.4-4.6-8.4-9.4c0-5.8,4.6-10.7,14.5-10.7c5.1,0,10.1,1.4,12.9,2.9l-1.7,5.3
			c-2.6-1.6-7.3-3-11.4-3c-5.9,0-8.5,2.3-8.5,5.1c0,2.5,1.8,3.8,5,4.6l7.3,2c6.5,1.8,10,4.6,10,9.8c0,6.8-6,11.3-14.8,11.3
			c-5.3,0-10.4-1.8-12.7-3.2l1.4-5.4c2.5,1.6,6.9,3.4,11.5,3.4c5.4,0,8.8-2.2,8.8-5.6c0-2.6-2.3-4-6.5-5L590.8,417.1z"/>
		<path class="st0" d="M619.5,434.3v-36.9h28.6v5h-23.2v10.4h19.3v5h-19.3v11.6h23.2v5H619.5z"/>
		<path class="st0" d="M663,406.5v27.9h-5.6v-36.9h4.9l23.4,28v-28h5.6v36.9h-4.9L663,406.5z"/>
		<path class="st0" d="M708.9,417.1c-5.4-1.4-8.4-4.6-8.4-9.4c0-5.8,4.6-10.7,14.5-10.7c5.1,0,10.1,1.4,12.9,2.9l-1.7,5.3
			c-2.6-1.6-7.3-3-11.4-3c-5.9,0-8.5,2.3-8.5,5.1c0,2.5,1.8,3.8,5,4.6l7.3,2c6.5,1.8,10,4.6,10,9.8c0,6.8-6,11.3-14.8,11.3
			c-5.3,0-10.4-1.8-12.8-3.2l1.4-5.4c2.5,1.6,6.9,3.4,11.5,3.4c5.4,0,8.8-2.2,8.8-5.6c0-2.6-2.3-4-6.5-5L708.9,417.1z"/>
		<path class="st0" d="M748,397.5h6.5l14.6,36.9h-5.7l-3.3-8.1h-18.4l-3.4,8.1h-5.8L748,397.5z M743.3,421.9h15.5l-7.5-18.8
			L743.3,421.9z"/>
		<path class="st0" d="M807.2,428.9c-3.3,3.1-9,6-15.1,6c-10.9,0-18.9-7.1-18.9-18.9c0-12,8-19,18.9-19c9.4,0,14.9,5.3,15.1,13.9
			l-5.2,1.1c-0.2-6.1-3.5-9.8-10-9.8c-7.6,0-12.9,5-12.9,13.8c0,8.6,5.3,13.7,13.1,13.7c4.9,0,9.4-2.3,12.3-4.9L807.2,428.9z"/>
		<path class="st0" d="M816.1,397.5h5.6v36.9h-5.6V397.5z"/>
		<path class="st0" d="M849.7,396.9c10.9,0,19,8.1,19,19c0,10.8-8.1,18.9-19,18.9c-10.8,0-18.9-8.1-18.9-18.9
			C830.7,405.1,838.9,396.9,849.7,396.9z M849.7,429.6c7.9,0,13.5-5.9,13.5-13.6c0-7.9-5.6-13.7-13.5-13.7
			c-7.8,0-13.4,5.8-13.4,13.7C836.3,423.7,841.9,429.6,849.7,429.6z"/>
		<path class="st0" d="M883.4,406.5v27.9h-5.6v-36.9h4.9l23.4,28v-28h5.6v36.9h-4.9L883.4,406.5z"/>
		<path class="st0" d="M923.3,434.3v-36.9h28.6v5h-23.2v10.4h19.3v5h-19.3v11.6h23.2v5H923.3z"/>
		<path class="st0" d="M967,417.1c-5.4-1.4-8.4-4.6-8.4-9.4c0-5.8,4.6-10.7,14.5-10.7c5.1,0,10.1,1.4,12.9,2.9l-1.7,5.3
			c-2.6-1.6-7.3-3-11.4-3c-5.9,0-8.5,2.3-8.5,5.1c0,2.5,1.8,3.8,5,4.6l7.3,2c6.5,1.8,10,4.6,10,9.8c0,6.8-6,11.3-14.8,11.3
			c-5.3,0-10.4-1.8-12.8-3.2l1.4-5.4c2.5,1.6,6.9,3.4,11.5,3.4c5.4,0,8.8-2.2,8.8-5.6c0-2.6-2.3-4-6.5-5L967,417.1z"/>
	</g>
	<g>
		<g>
			<path class="st1" d="M586.8,113.2c-12.9,0-23.4,10.5-23.4,23.4s10.5,23.4,23.4,23.4c12.9,0,23.4-10.5,23.4-23.4
				S599.7,113.2,586.8,113.2L586.8,113.2z M586.8,147.8c-6.2,0-11.2-5-11.2-11.2c0-6.2,5-11.2,11.2-11.2c6.2,0,11.2,5,11.2,11.2
				C598.1,142.8,593,147.8,586.8,147.8L586.8,147.8z M586.8,147.8"/>
			<path class="st1" d="M645.5,160c12.9,0,23.4-10.5,23.4-23.4c0-12.9-10.5-23.4-23.4-23.4c-12.9,0-23.4,10.5-23.4,23.4
				C622,149.5,632.6,160,645.5,160L645.5,160z M645.5,125.3c6.2,0,11.2,5,11.2,11.2s-5,11.2-11.2,11.2c-6.2,0-11.3-5-11.3-11.2
				S639.3,125.3,645.5,125.3L645.5,125.3z M645.5,125.3"/>
			<g>
				<path class="st1" d="M785,237.6c1.2-1.1,2.5-2.2,3.8-3.3v-81c0-19.5,15.6-35.7,34.8-36c0.2,0,0.4,0,0.5,0
					c9.3,0,18.1,3.6,24.8,10.2c6.8,6.7,10.6,15.6,10.6,25.2V174c0,3.8-3.1,7-7,7c-1.9,0-3.6-0.7-4.9-2c-1.3-1.3-2-3.1-2-4.9v-20.9
					c0-5.8-2.4-11.5-6.6-15.6c-4.1-4.1-9.6-6.2-15.2-6.1c-11.6,0.2-21.1,9.8-21.1,21.4v70.5c3.8-2.9,7.8-5.7,11.8-8.5
					c0.1-0.1,0.2-0.2,0.3-0.2v-61.8c0-5,4.1-9.2,9.1-9.2c2.4,0,4.7,0.9,6.5,2.7c1.9,1.8,2.9,4.4,2.9,6.9V174c0,5.1,2,9.9,5.6,13.5
					c3.6,3.6,8.4,5.6,13.5,5.6c10.6,0,19.1-8.6,19.1-19.1v-21.2c0-12.8-5-24.8-14.2-33.8c-9.1-9-21.2-13.8-34.1-13.7
					c-25.8,0.4-46.8,22-46.8,48.1v92C779.4,242.7,782.2,240.1,785,237.6z"/>
				<path class="st1" d="M537.6,156.7c5.3,3,11.1,4.6,17.1,4.6c0.2,0,0.3,0,0.5,0c6,10.5,14.7,19.5,25.5,25.9
					c4.5,2.7,9.4,4.8,14.4,6.4v37c3.6,0.2,7,0.9,10,2.2c0.7,0.3,1.4,0.6,2.1,1v-37.6c3,0.4,6,0.6,9,0.6c1.3,0,2.6,0,4-0.1v55.1
					c0.2,1.8,0.3,3.7,0,5.8v19.4c3.6-2.6,7.6-5.8,12.2-9.8v-72.2c6.8-1.6,13.3-4.2,19.4-7.7c10.8-6.3,19.5-15.3,25.5-25.9
					c0.3,0,0.5,0,0.8,0c6.7,0,13.1-1.9,18.6-5.5c14.9,8.6,26.6,21.2,34.3,36c5.3,0,10.1,0.8,14.4,2.2c-8-19.2-21.6-35.7-39.6-46.9
					c0.8-1.1,1.5-2.2,2.2-3.4c4.6-8,5.8-17.4,3.3-26.3c-2.4-8.9-8.2-16.4-16.3-20.9c-5.4-3.1-11.4-4.6-17.6-4.5
					c-1.9-3.4-4.1-6.7-6.6-9.8c-13.4-16.6-33.3-26-54.6-26c-21.3,0-41.2,9.5-54.6,26c-2.5,3.1-4.7,6.4-6.6,9.8
					c-12.4-0.1-23.9,6.5-30.2,17.5c-4.6,8-5.8,17.4-3.3,26.3C523.8,144.7,529.6,152.2,537.6,156.7z M683,104.8
					c2.1,0.5,4.1,1.3,6,2.3c5.2,3,9,7.8,10.5,13.6c1.6,5.8,0.8,11.9-2.1,17.1c-3.2,5.6-8.5,9.4-14.5,10.8c2.4-7.1,3.6-14.5,3.6-22.1
					C686.4,119.1,685.2,111.7,683,104.8z M616.1,68.3c12.6,0,24.7,4,34.6,11.4c-13.5,1.7-25.8,8.3-34.6,18.7
					c-8.8-10.3-21.1-17-34.6-18.7C591.5,72.4,603.5,68.3,616.1,68.3z M566.7,95.9c1.7-2.7,4.6-4.4,7.7-4.4h0
					c15,0,28.6,7.7,36.4,20.5l5.2,8.5l5.2-8.5c7.8-12.8,21.4-20.5,36.4-20.5h0.1c3.2,0,6.1,1.7,7.7,4.4c5.7,9.1,8.7,19.8,8.7,30.6
					c0,20.5-11,39.8-28.8,50.2c-8.9,5.2-19,7.9-29.4,7.9c-10.3,0-20.5-2.7-29.4-7.9C569,166.2,558,147,558,126.5
					C558,115.6,561.1,105,566.7,95.9z M535.2,115.5c3.1-5.4,8.2-9.2,14-10.7c-2.2,7-3.4,14.2-3.4,21.6c0,7.6,1.2,15,3.6,22
					c-2-0.5-3.9-1.3-5.8-2.3c-5.2-3-9-7.8-10.5-13.6C531.5,126.8,532.3,120.7,535.2,115.5z"/>
				<path class="st1" d="M646,254.3c0.1-0.1,0.2-0.2,0.3-0.3c4-5.6,8-10.8,11.9-15.5v-38.5H646V254.3z"/>
			</g>
		</g>
		<path class="st0" d="M289.7,274.8c0.2,0.2,0.3,0.5,0.5,0.7c1.5,1.6,3.7,2.5,6.6,2.5c2.9,0,5.9-1.5,8.9-4.5
			c3.8-3.8,7.8-7.8,12.1-12.1c4.3-4.3,8.6-8.8,12.9-13.6c-3.5,9.3-6.8,18.5-9.6,27.4c-2.9,9-5.5,17.6-7.8,25.9
			c-1.8,6.3-2.1,12.1-0.9,17.2c1.1,5.2,2.9,9,5.3,11.5c2.4,2.5,5.2,3.5,8.3,3c3.2-0.5,5.7-3.3,7.8-8.3c3-7.1,7.9-15,14.6-23.8
			c6.7-8.8,13.7-17.4,21-25.7c7.3-8.3,14.3-15.7,20.8-22.1c6.6-6.4,11.4-10.9,14.4-13.4c5.8-5,9.6-6,11.4-2.8
			c1.8,3.2-0.6,9.9-7.2,20.2c-3.3,5-7,11.1-11.2,18.2c-4.2,7.1-8.3,14.5-12.3,22.3c-4,7.8-7.8,15.6-11.4,23.3
			c-3.5,7.7-6.2,14.7-7.9,21c-1.8,6.6-2.2,12.1-1.3,16.7c0.9,4.5,2.6,8,5.3,10.4c2.6,2.4,5.9,3.7,9.8,3.8c3.9,0.1,8-0.9,12.3-3.2
			c3.3-1.8,7.6-4.9,12.9-9.5c5.3-4.5,11-9.8,17.2-15.9c6.2-6.1,12.6-12.6,19.3-19.7c6.7-7.1,13.1-13.8,19.1-20.2
			c6.1-6.4,11.6-12.4,16.7-17.8c5-5.4,9.1-9.7,12.1-12.7c0,0,0.1-0.1,0.1-0.1c8-8,12.2-11.2,12.6-9.7c0.4,1.5-3.8,9.8-12.7,25
			c-6.8,11.4-10.5,20.2-11,26.5c-0.5,6.3,1,10.6,4.5,12.9c3.5,2.3,8.5,2.8,14.8,1.5c6.3-1.3,12.7-3.7,19.3-7.2
			c11.6-6.6,21.4-13.3,29.3-20.2c8-6.9,13.9-11.9,18-15c7.8-5.8,10.1-3.3,6.8,7.6c-3.5,12.1-4.2,21.7-2.1,28.8
			c2.1,7.1,7.3,10.3,15.5,9.8c8.2-0.5,19.5-5.4,33.9-14.6c2.8-1.8,5.7-3.8,8.8-6c-2,5.4-3.3,10.3-4,14.9
			c-2.1,13.9-0.3,24.1,5.7,30.7c5.9,6.6,15,9.5,27.1,8.9c12.1-0.6,25.5-5.1,40.1-13.4c17.7-9.8,34.2-21.7,49.6-35.6
			c15.4-13.9,31-28.8,46.9-44.7c0,0,0,0,0,0c5.5-5.5,11.4-10.8,17.6-15.8c6.2-5,11.4-8.8,15.7-11.2c4.3-2.4,6.9-2.8,7.8-1.3
			c0.9,1.5-1.3,6.1-6.6,13.6c-3,4.3-6.7,10.2-11,17.6c-4.3,7.4-8.6,15.1-12.9,23.1c-4.3,7.9-8.3,15.6-11.9,23.1
			c-3.7,7.4-6.4,13.2-8.1,17.2c-2.3,5.3-2.9,10.3-1.9,15.1c1,4.8,3,8.4,5.9,10.8c2.9,2.4,6.2,3.4,10,3c3.8-0.4,7.2-3.1,10.2-8.1
			c3-4.8,7.4-10.8,13.2-18c5.8-7.2,12.1-14.6,18.9-22.1c6.8-7.6,13.6-14.8,20.4-21.8c6.8-6.9,12.6-12.5,17.4-16.8
			c9.6-8.6,15.1-11.5,16.7-8.7c1.5,2.8-0.3,10.2-5.3,22.3c-2.8,6.6-4,12.4-3.6,17.6c0.4,5.2,2.1,9.3,5.1,12.3c3,3,7,4.7,11.9,5.1
			c4.9,0.4,10.5-0.9,16.8-4c5.5-2.8,11.4-6.4,17.6-11c6.2-4.5,12.2-9.3,18-14.4c5.8-5,11.3-10,16.5-14.9c5.2-4.9,9.5-9.1,13.1-12.7
			c3.5-3.5,5.5-6.9,5.9-10.2c0.4-3.3-0.2-5.7-1.7-7.4c-1.5-1.6-3.8-2.3-7-1.9c-3.2,0.4-6.6,2.5-10.4,6.2
			c-9.6,9.3-18.2,17.3-25.9,23.8c-7.7,6.6-14.1,11.2-19.1,13.8c-5,2.6-8.3,3.1-9.8,1.3c-1.5-1.8-0.8-6.1,2.3-12.9
			c2-5,3.7-9,5.1-11.7c1.4-2.8,2.7-6.7,4-11.7c0.5-2.5,0.1-5.3-1.1-8.3c-1.3-3-3.5-5.5-6.6-7.4c-3.2-1.9-7.1-2.6-11.9-2.3
			c-4.8,0.4-10.5,2.6-17,6.6c-6.6,4.3-12.8,8.8-18.7,13.6c-5.9,4.8-11.3,9.3-16.1,13.6c-4.8,4.3-9,8.2-12.5,11.7
			c-3.5,3.5-6.1,6.1-7.6,7.6c-2,2.3-3.9,3.9-5.5,4.9c-1.6,1-2.8,1.3-3.6,0.9c-0.8-0.4-0.9-1.4-0.6-3c0.4-1.6,1.8-4.2,4.4-7.8
			c2.3-3.3,5.3-7.6,9.1-12.9c3.8-5.3,7.7-10.9,11.7-16.8c4-5.9,7.9-11.7,11.7-17.2c3.8-5.5,6.9-10.5,9.5-14.8
			c2.5-4.3,3.5-8.5,2.8-12.7c-0.6-4.2-2.5-7.4-5.7-9.7c-3.2-2.3-7.4-3.2-12.7-2.8c-5.3,0.4-11.5,2.8-18.5,7.4
			c-6.1,4-11.6,7.8-16.7,11.4c-5,3.5-9.9,7.1-14.6,10.6c-4.7,3.5-9.3,7.3-13.8,11.4c-4,3.5-8,7.3-12.2,11.4
			c-0.6,0.5-1.1,1.1-1.7,1.7c0,0-0.1,0.1-0.1,0.1c0,0,0,0,0,0c-17.1,16.9-32.4,30.7-45.7,41.6c-13.4,10.9-25.9,19.2-37.5,25
			c-9.3,4.5-17.2,7.1-23.5,7.8c-6.3,0.6-11.2-0.3-14.6-2.8c-3.4-2.5-5.3-6.2-5.7-11c-0.4-4.8,0.7-10.2,3.2-16.3
			c22.2-4.5,40.7-11.4,55.4-20.4c14.8-9.1,25.8-18.6,33.1-28.6c7.3-10,11.1-19.4,11.4-28.2c0.3-8.8-2.9-15.3-9.5-19.3
			c-4.3-2.5-9.7-3.7-16.3-3.6c-6.6,0.1-14.1,2.5-22.5,7.2c-8.5,4.7-17.8,12.1-28,22.3c-7.5,7.5-15.3,16.9-23.4,28.3
			c-12,11.8-22,20.5-30,26c-8.5,5.8-15,9-19.7,9.7c-4.7,0.6-7.6-0.7-8.7-4c-1.1-3.3-0.9-7.6,0.6-12.9c1.3-3.5,2.6-7.2,4-11
			c1.4-3.8,2.8-7.1,4.4-9.8c1.8-3.5,2-6.7,0.6-9.7c-1.4-2.9-3.6-5-6.6-6.2c-3-1.3-6.7-1.6-11-1.1c-4.3,0.5-8.3,2.4-12.1,5.7
			c-8.1,6.8-16.5,14-25.4,21.6c-8.8,7.6-16.9,13.4-24.2,17.4c-14.6,7.6-18.8,4.9-12.5-7.9c2-4.3,4.6-9,7.8-14.2
			c3.2-5.2,6.4-10.3,9.8-15.5c3.4-5.2,6.6-10.2,9.5-15c2.9-4.8,5.2-9,7-12.5c1.5-3.5,1.8-6.6,0.9-9.1c-0.9-2.5-2.5-4.4-4.9-5.5
			c-2.4-1.1-5.2-1.5-8.5-1.1c-3.3,0.4-6.6,1.7-9.8,4c-3.3,2.3-6.9,5.3-11,9.1c-4,3.8-8.3,7.9-12.7,12.3c-4.4,4.4-9,9-13.6,13.8
			c-4.7,4.8-9.1,9.5-13.4,14c-0.1,0.1-0.1,0.1-0.1,0.2c-13.8,14.3-26.4,26.9-37.7,37.7c-11.4,10.8-20.4,18.8-27.1,23.8
			c-6.7,5-10.5,6.5-11.5,4.4c-1-2.1,1.8-8.9,8.3-20.2c9.3-15.9,17.5-29.9,24.4-42c6.9-12.1,12-22.8,15.3-32.2
			c2.5-7.3,3-13.2,1.5-17.8c-1.5-4.5-4.4-7.6-8.5-9.1c-4.2-1.5-9.3-1.4-15.3,0.2c-6.1,1.6-12.4,4.9-18.9,9.7
			c-13.1,9.6-24.1,18.7-32.9,27.4c-8.8,8.7-14.8,14.7-17.8,18c-2.3,2.3-4.2,3.5-5.7,3.6c-1.5,0.1-1.9-1.8-1.1-5.9
			c0.8-4,3-10.7,6.8-19.9c3.8-9.2,9.8-22,18.2-38.4c10.8-12.4,21.7-25.1,32.5-38.2c10.8-13.1,21-25.9,30.5-38.2
			c9.5-12.4,18-24.1,25.7-35.2c7.7-11.1,13.8-21.1,18.4-29.9c4.8-9.3,7.1-17.1,7-23.3c-0.1-6.2-2-10.3-5.5-12.5
			c-3.5-2.1-8.2-2.3-14-0.4c-5.8,1.9-11.9,6-18.2,12.3c-7.6,7.6-15.5,17-23.8,28.4c-8.3,11.4-16.7,24-25,38
			c-8.3,14-16.6,28.9-24.8,44.7c-8.2,15.8-16.1,31.9-23.7,48.3c-8.8,10.6-18.2,21.4-28.2,32.4c-10,11-20.8,22.4-32.4,34.3
			c-2.2,2.2-3.6,4.5-4.1,6.8 M681.2,263.2c4.8-6.1,9.6-11.4,14.6-16.1c4.9-4.7,9.7-8.5,14.4-11.5c4.7-3,9-4.9,13.1-5.7
			c4.8-0.8,7.1,1,7,5.3c-0.1,4.3-2.6,9.5-7.6,15.5c-4.9,6.1-12,12.1-21.2,18.2c-9.2,6.1-20.4,10.3-33.5,12.9
			C672,275.5,676.4,269.3,681.2,263.2z"/>
	</g>
	<path class="st0" d="M337.8,52.3c-2.2-10.8-8.2-18.5-14.4-23.9c-6.4-5.3-13.2-8.5-19.7-10.6c-6.6-2-13-3-19.1-3.4
		c-6.1-0.4-12.1-0.1-17.7,0.4c-10.7,1-21.2,2.8-31.5,5.1c-10.3,2.4-20.4,5.3-30.3,8.9c-9.9,3.5-19.6,7.6-29,12.4
		c-37.7,18.6-71.2,45.7-97.8,77.6c-13.4,15.9-25.1,33-35.3,50.8c-10.5,18.4-19.1,38.1-24.9,58.8c-5.9,20.7-9,42.3-8.8,64.2
		c0.3,21.8,3.6,43.9,11.4,65c3.8,10.6,8.7,20.9,15.1,30.7c6.3,9.7,14.1,18.9,23.6,26.6c9.5,7.7,20.8,13.8,33.1,17
		c3,0.8,6.1,1.5,9.2,1.9c1.5,0.3,3.1,0.4,4.7,0.6c1.6,0.2,2.9,0.2,4.3,0.3l4.2,0.2l4.2,0c2.8,0,5.7-0.2,8.5-0.4
		c22.8-1.6,44.7-10.2,62.8-22.1c9.1-5.9,17.5-12.6,25.2-19.8c7.8-7.1,14.9-14.6,21.6-22.3c13.5-15.4,25.3-31.7,36.6-47.8
		c7.6-10.9,15.5-22.6,22.7-35.2h-0.2c3.1-5.7,4.6-11.8,4.9-18.1c0.1-2.1,0.1-4.1-0.1-6c-0.2-4-0.8-6.7-1.5-8.9
		c-0.2-0.9-0.5-1.7-0.8-2.6c-1.9-5.3-4.6-10-8-13.9c-3.5-3.9-7.2-6.6-11.1-8c-3.9-1.4-8.4-1.9-11.8,0.9c-4.6,3.9-7,12.6-9.5,19.4
		c-5.4,16.1-13.7,31.6-23.2,48.2c-4.5,8.2-9.1,16.2-14.1,23.8c-5,7.6-9.9,15.2-15.5,22.1c-5.5,7-11.3,13.6-17.3,19.7
		c-6.1,6.1-12.6,11.5-19.4,16.1c-6.8,4.6-14,8.4-21.4,11c-7.4,2.7-15,4.4-22.8,4.7c-1.9,0.1-3.9,0.2-5.8,0.1l-2.9,0l-2.9-0.2
		c-0.9-0.1-2-0.1-2.8-0.2c-0.8-0.1-1.6-0.2-2.4-0.4c-1.6-0.3-3.2-0.7-4.8-1.2c-3.1-0.9-6.1-2.3-8.9-4.1c-2.8-1.7-5.5-3.8-8-6.2
		c-5-4.8-9.2-10.9-12.4-17.6c-3.2-6.8-5.6-14.3-7.2-22c-3-15.6-3.1-32.2-0.8-48.6c2.2-16.4,6.4-32.6,12-48.4
		c5.6-15.8,12.6-31.3,20.8-46.2c8.5-15.5,17.9-30.5,27.8-44.9c2.4-3.7,5.1-7.1,7.6-10.7c2.7-3.4,5.3-6.9,8.1-10.3
		c5.4-6.9,11.2-13.3,17.2-19.6c12-12.5,25.3-23.8,39.7-33.4c7.3-4.7,14.8-9,22.6-12.7c7.8-3.7,15.9-6.8,24.1-9.3
		c4.1-1.2,8.3-2.3,12.4-3.2c4.2-0.9,8.4-1.5,12.5-2c3.9-0.4,7.5-0.4,11-0.1c3.4,0.3,6.5,1,9,2c1.5,0.5,2.7,1.2,3.6,1.8
		c-2.4,2.9-4.8,5.8-7.1,8.7c-12.4,15.8-23.5,31.6-34.4,47.3c-2.4,3.4-3.6,7.3-3.7,11.2c-0.6,4,0.2,7.7,2.4,11.1
		c3,4.9,7,8.4,11.8,10.7c4.9,2.3,9.8,3,14.8,2.3c5-0.8,8.4-3.7,10.3-8.9c1.8-5.2,5-10.8,9.6-16.9l-0.1-0.1
		c7.5-10.5,15-20.8,22.7-30.5c2.8-3.6,5.7-7,8.6-10.4l0.5-0.6l1-1.3c0.9-1.2,1.8-2.4,2.6-3.7c1.6-2.5,2.8-5.4,3.7-8.2
		C338.7,63.6,338.8,57.6,337.8,52.3z M297.8,54.4l-0.2,0.2c0,0,0,0,0-0.1L297.8,54.4z M296.4,60.3C296.8,60.8,296.6,61,296.4,60.3
		L296.4,60.3z"/>
</g>
</svg>
